<svg id="Layer_2" data-name="Layer 2" xmlns="http://www.w3.org/2000/svg" viewBox="0 0 50.47 62.47"><defs><style>.cls-1{fill:#699a18;}.cls-2{fill:#e41424;}.cls-3{font-size:14.24px;font-family:Besans;}.cls-4{fill:#973c9a;}</style></defs><path class="cls-1" d="M33.81,48c-.36,0-.94,1.59-1.09,3a5.4,5.4,0,0,0,.17,2.84,7.93,7.93,0,0,0,1.34,2c.29.36.53.58.7.77a19.48,19.48,0,0,0,2.68,2.2c.52.37.44.29.93.64,2,1.4,2,1.81,3,2.24a5.41,5.41,0,0,0,2.87.33,6.74,6.74,0,0,0,2.44-.72c.21-.11,1.75-.92,1.61-1.46-.07-.26-.6-.36-1.14-.43a6.54,6.54,0,0,0-1.4,0,4.74,4.74,0,0,1-1.54,0c-.39-.11-.45-.24-.47-.3s.15-.33.36-.6a6.85,6.85,0,0,0,.56-.94A16.5,16.5,0,0,1,46,55.92a5.1,5.1,0,0,0,.5-.8c0-.08.32-.64.17-.77s-.73.24-1.09.5c-.78.53-.83.73-1.41,1.17a4.55,4.55,0,0,1-2.53,1L40.69,57c-1-.09-1.22-.17-1.27-.3s.13-.36.23-.47a13.61,13.61,0,0,1,1.54-1.67c2-1.49,2.83-5,3.13-6.25a1.63,1.63,0,0,0-.11-1.17c-.14-.25-.45-.59-.7-.51s-.26.73-.27.88c0,.64-.27,1.13-2.77,4.54-1.36,1.85-1.74,2.34-1.94,2.24s-.1-.41,0-1.08A22.66,22.66,0,0,0,38.76,49c-.09-.89-.08-1.59-.36-1.67-.52-.15-1.67,1.65-2.22,3.5s-.3,3-.6,3-.89-2-1-2.37C34,49.26,34.11,48,33.81,48Z" transform="translate(-9.56 -12.57)"/><path class="cls-2" d="M32.42,62.74a4.89,4.89,0,0,1-2,1.54c-1,.27-1.72.41-2-.62a3.51,3.51,0,0,1,.31-3c.63-.73,1.45-1.43,2.18-1.34s1.54.13,1.77,1a3.56,3.56,0,0,1-.07,2.25Z" transform="translate(-9.56 -12.57)"/><path class="cls-2" d="M34.7,56.55a6.88,6.88,0,0,0-1.39,2.85c-.09,1.23-.36,2,.43,2.28a2.86,2.86,0,0,0,2.67-.83C37.06,60.12,38,59,38,59S37.33,57,36,56.76Z" transform="translate(-9.56 -12.57)"/><path class="cls-2" d="M36,62.78a2.34,2.34,0,0,1-.36,2c-.73,1.06-2,2.44-2.61,2.24s-1-1.67-.76-2.63,1.29-2.12,2-2.18,1.41.09,1.54.33Z" transform="translate(-9.56 -12.57)"/><path class="cls-2" d="M38,59.15a18.34,18.34,0,0,0-1.09,2.44c-.27.91-.85,2.54.18,2.89a5.73,5.73,0,0,0,3.5-.57l.73-.4s-1.9,1.11-2,1.92-.46.84.32,1.35a7.53,7.53,0,0,1,1.11.84,2.44,2.44,0,0,0-2.54.49c-1.11,1.09-1.13,1.41-1,2.18a8,8,0,0,1,.2,1.09c0,.2,0,.31,0,.31a1.24,1.24,0,0,1,.84-.44,3.08,3.08,0,0,0,2-1.14c.45-.71.54-.67.61-1.29a4,4,0,0,0,0-1.09l.07-.12s2-1,1.81-2.4a1.9,1.9,0,0,0-1.31-1.63s.95-2.18-.24-3.19A7,7,0,0,0,38,59.15Z" transform="translate(-9.56 -12.57)"/><path class="cls-2" d="M38.48,65.5a1.56,1.56,0,0,0-1.93-.45c-1.22.55-2.74,1.66-2.71,3s-.1,1.58.77,1.58a3,3,0,0,0,2.66-.9c1-1,1.88-1.91,1.51-2.71S38.48,65.5,38.48,65.5Z" transform="translate(-9.56 -12.57)"/><path class="cls-2" d="M27.11,69.17a10.32,10.32,0,0,0-.64,2.22c.12.24,0,.67,1.39.36s1.51-2.32,1.51-2.32-.16-.89-.9-.87A2.3,2.3,0,0,0,27.11,69.17Z" transform="translate(-9.56 -12.57)"/><path class="cls-2" d="M32.68,67.48a2.67,2.67,0,0,0-2.09.7c-.82.85-1.58,2.59-1.09,3.33a1.46,1.46,0,0,0,.88.71c.46.1.84-.16,1.45-.61a3.35,3.35,0,0,0,1.59-2,3.58,3.58,0,0,0,0-.65,2,2,0,0,0-.13-.94A1.31,1.31,0,0,0,32.68,67.48Z" transform="translate(-9.56 -12.57)"/><path class="cls-2" d="M31.36,73.71a2,2,0,0,0,1.27.43,10,10,0,0,0,2.88-.57,3.82,3.82,0,0,0,1.58-1.2l.24-.49v-.09a1.56,1.56,0,0,0-1-1.35c-1-.43-2-1-3.06.23a11.71,11.71,0,0,0-1.71,2.64Z" transform="translate(-9.56 -12.57)"/><path class="cls-2" d="M34.58,56.47a19.33,19.33,0,0,1-2.24,2.61c-.32.07-1.25.09-1.45-.68s-.43-2.29-.43-2.29-.1-.14-.19,1-.46,2.1-1.27,2.1a2.56,2.56,0,0,1-1.86-.66,6.14,6.14,0,0,0-.72-.54s-.26,0,0,.25A9.59,9.59,0,0,1,27.75,60a3.11,3.11,0,0,1,.17,1.57,4,4,0,0,1-1,1.77,2.59,2.59,0,0,1-1.81,0c-1.15-.27-1.21-.17-1.21-.17s-.13.29.37.34,1.18.91,1.36,1.24.67,2.48-.41,2.88a5.38,5.38,0,0,0-1.2.54s-.51.17.56,0a4.07,4.07,0,0,1,1.72-.1,1.61,1.61,0,0,1,.36,1.54c-.2.78-1.27,2.88-1.25,3.15l0,.27s.23.15.63-.32a4.72,4.72,0,0,1,2.63-.87,2.06,2.06,0,0,1,1.65.87,5.53,5.53,0,0,1,.72,1l0,.2S30.83,75.2,28.75,75s-2.56-.47-2.85-1.09a2,2,0,0,1-.28-.83c0-.13-.06,0-.17-.06s-1.21.21-1.61-1.54-.54-1-.24-1.85A4.32,4.32,0,0,0,24,68.4c0-.16-.94-1.16-1.09-1.83s-.3-2.06.25-2.61.81-.56.72-.93a2.83,2.83,0,0,1-.34-2.2c.36-1.27.64-2,1.37-2.4a2.63,2.63,0,0,1,1.23-.33c.18,0,.29-.12.29-.66s.58-2.11,1.67-2.18,1.21-.09,1.55.13.49.55.67.46S31,54.64,32,54.64a3,3,0,0,1,2.24,1.07A2,2,0,0,1,34.58,56.47Z" transform="translate(-9.56 -12.57)"/><path class="cls-2" d="M26.71,64.24a1.68,1.68,0,0,0-.36,1,3.6,3.6,0,0,0,.09,2.14c.42.81.27.83,1.38,1s1.67-1.23,1.52-2.07S28.81,63.87,27.8,64,26.71,64.24,26.71,64.24Z" transform="translate(-9.56 -12.57)"/><path class="cls-2" d="M30.61,64.66a3,3,0,0,0-.68.73,3.44,3.44,0,0,0-.41,1.31c.07.23-.11,1.09.94.92S32.2,67.19,32,66s-.29-1.41-.84-1.43S30.61,64.66,30.61,64.66Z" transform="translate(-9.56 -12.57)"/><text class="cls-3" transform="translate(0 17.3)">English<tspan class="cls-4"><tspan x="0" y="17.09">Berry</tspan></tspan></text></svg>