<svg id="Layer_2" data-name="Layer 2" xmlns="http://www.w3.org/2000/svg" viewBox="0 0 60.29 57.97"><defs><style>.cls-1{fill:#699a18;}.cls-2{fill:#e41424;}.cls-3{fill:#f9f7f9;}</style></defs><path class="cls-1" d="M37.72,13.08C37,13,35.8,16.32,35.5,19.22c-.24,2.22-.43,3.87.34,5.79a16.15,16.15,0,0,0,2.73,4.09A20.64,20.64,0,0,0,40,30.67a40.62,40.62,0,0,0,5.46,4.51c1.06.74.89.57,1.91,1.29,4.05,2.86,4.08,3.7,6,4.57a11.07,11.07,0,0,0,5.86.68,14,14,0,0,0,5-1.48c.43-.22,3.56-1.87,3.28-3-.15-.54-1.22-.74-2.33-.89a14.28,14.28,0,0,0-2.85-.07c-1.38,0-2.05.38-3.14.07-.79-.22-.92-.48-1-.62-.1-.34.31-.67.74-1.22a17.5,17.5,0,0,0,1.14-1.91,35.74,35.74,0,0,1,2.45-3.4,9.61,9.61,0,0,0,1-1.64c.08-.16.65-1.29.34-1.57s-1.48.5-2.22,1a33,33,0,0,0-2.86,2.4,9.55,9.55,0,0,1-5.17,2.11c-.27,0-.81,0-1.91-.14-2.11-.19-2.5-.35-2.59-.61s.27-.74.47-1a28.27,28.27,0,0,1,3.14-3.41c4.12-3,5.77-10.15,6.37-12.75a3.36,3.36,0,0,0-.21-2.39c-.29-.5-.92-1.19-1.43-1S57,11.76,57,12.06c0,1.3-.55,2.3-5.66,9.27-2.76,3.77-3.54,4.75-3.95,4.57s-.21-.84-.07-2.22c.5-5.18.74-6.72.55-8.53s-.17-3.25-.74-3.4c-1.06-.32-3.41,3.35-4.52,7.12-1,3.55-.62,6.06-1.23,6.14s-1.82-4-2-4.84C38.11,15.65,38.34,13.16,37.72,13.08Z" transform="translate(-7.22 -10.25)"/><path class="cls-2" d="M34.89,43.15s-2,2.59-4.05,3.14-3.5.82-4.1-1.28-.63-4.74.64-6.22,3-2.91,4.44-2.73,3.13.27,3.61,2,.29,4.09-.14,4.59Z" transform="translate(-7.22 -10.25)"/><path class="cls-2" d="M39.52,30.51s-2.63,3.32-2.82,5.82S36,40.5,37.57,41A5.84,5.84,0,0,0,43,39.28c1.32-1.48,3.14-3.7,3.14-3.7s-1.27-4.18-4-4.64Z" transform="translate(-7.22 -10.25)"/><path class="cls-2" d="M42.2,43.23a4.67,4.67,0,0,1-.74,4.06c-1.48,2.16-4,5-5.32,4.57s-2.09-3.4-1.54-5.36,2.63-4.32,4.18-4.44,2.87.18,3.13.68Z" transform="translate(-7.22 -10.25)"/><path class="cls-2" d="M46.16,35.83a34.55,34.55,0,0,0-2.22,5c-.55,1.85-1.73,5.18.36,5.88s5.66-.39,7.14-1.16l1.48-.81S49.06,47,48.83,48.62s-.94,1.72.65,2.75a17.15,17.15,0,0,1,2.27,1.72,5,5,0,0,0-5.18,1c-2.27,2.22-2.32,2.86-2,4.44a14,14,0,0,1,.41,2.22c0,.41,0,.64,0,.64a2.62,2.62,0,0,1,1.72-.92,6.2,6.2,0,0,0,4.14-2.31c.91-1.45,1.09-1.36,1.23-2.64a7.87,7.87,0,0,0,0-2.22l.14-.24s4.18-2.08,3.7-4.9a3.83,3.83,0,0,0-2.69-3.31s1.94-4.44-.48-6.5S46.16,35.83,46.16,35.83Z" transform="translate(-7.22 -10.25)"/><path class="cls-2" d="M47.23,48.77a3.18,3.18,0,0,0-3.93-.91c-2.49,1.12-5.59,3.37-5.53,6s-.2,3.23,1.57,3.23,3.36.2,5.44-1.84,3.82-3.89,3.06-5.52S47.23,48.77,47.23,48.77Z" transform="translate(-7.22 -10.25)"/><path class="cls-2" d="M24.05,56.24s-1.53,4.06-1.3,4.54-.09,1.36,2.84.74,3.07-4.74,3.07-4.74S28.33,55,26.82,55A4.81,4.81,0,0,0,24.05,56.24Z" transform="translate(-7.22 -10.25)"/><path class="cls-2" d="M35.4,52.8a5.53,5.53,0,0,0-4.26,1.43C29.48,56,27.92,59.51,28.92,61a3,3,0,0,0,1.79,1.46c.95.2,1.73-.34,3-1.25s3-2.11,3.25-4A9.72,9.72,0,0,0,37,55.92,4,4,0,0,0,36.71,54,2.7,2.7,0,0,0,35.4,52.8Z" transform="translate(-7.22 -10.25)"/><path class="cls-2" d="M32.73,65.52a4,4,0,0,0,2.58.86,20,20,0,0,0,5.87-1.16c1.09-.57,2.75-1.43,3.23-2.43l.48-1v-.2a3.17,3.17,0,0,0-2.08-2.76c-2.06-.86-4-2.11-6.24.48a23.22,23.22,0,0,0-3.48,5.39C32.84,65.22,32.73,65.52,32.73,65.52Z" transform="translate(-7.22 -10.25)"/><path class="cls-2" d="M39.29,30.36s-3.91,5.19-4.57,5.33-2.55.17-3-1.4-.89-4.67-.89-4.67-.2-.28-.37,2S29.55,36,27.91,36a5.23,5.23,0,0,1-3.79-1.36,12.27,12.27,0,0,0-1.48-1.09s-.52,0,0,.51a19.88,19.88,0,0,1,2.73,3.62,6.46,6.46,0,0,1,.34,3.2c-.31,1.19-1.43,3.38-2,3.61s-1.36.55-3.7,0-2.45-.34-2.45-.34-.29.59.74.68,2.4,1.87,2.77,2.55,1.36,5.05-.82,5.87a10.2,10.2,0,0,0-2.46,1.09s-1,.36,1.14,0a8,8,0,0,1,3.5-.18,3.23,3.23,0,0,1,.74,3.14c-.4,1.59-2.59,5.86-2.54,6.41l0,.55s.46.31,1.27-.64,4.35-2,5.37-1.78a4.16,4.16,0,0,1,3.36,1.76,11.08,11.08,0,0,1,1.48,2.06l0,.4s-.55,2.59-4.78,2.22-5.22-1-5.82-2.22A4,4,0,0,1,21,64.27c-.05-.28-.12-.06-.36-.12s-2.46.41-3.27-3.15-1.11-2.06-.48-3.77a8.67,8.67,0,0,0,.8-2.54c-.05-.33-1.91-2.37-2.23-3.75s-.6-4.19.52-5.32,1.65-1.12,1.48-1.89-1.42-1.89-.7-4.48,1.3-4.16,2.78-4.9a5.14,5.14,0,0,1,2.51-.66c.37,0,.59-.25.59-1.36s1.2-4.31,3.4-4.45,2.48-.17,3.16.28,1,1.11,1.39.93S32,26.63,34,26.63a6.09,6.09,0,0,1,4.56,2.17A4,4,0,0,1,39.29,30.36Z" transform="translate(-7.22 -10.25)"/><path class="cls-2" d="M23.24,46.19a3.44,3.44,0,0,0-.74,2.13c0,1.28-.68,2.73.19,4.37s.54,1.68,2.81,2,3.41-2.5,3.09-4.22-1.06-5-3.13-4.81S23.24,46.19,23.24,46.19Z" transform="translate(-7.22 -10.25)"/><path class="cls-2" d="M31.2,47.06a6.2,6.2,0,0,0-1.41,1.48A7.08,7.08,0,0,0,29,51.22c.14.46-.23,2.22,1.91,1.86s3.55-.86,3.23-3.36-.59-2.86-1.73-2.91S31.2,47.06,31.2,47.06Z" transform="translate(-7.22 -10.25)"/><path class="cls-3" d="M7.22,48.3s.68,2.05,1.36,1.43S7.22,48.3,7.22,48.3Z" transform="translate(-7.22 -10.25)"/></svg>